<?xml version="1.0" encoding="UTF-8"?>
<svg width="998px" height="998px" viewBox="0 0 998 998" version="1.1" xmlns="http://www.w3.org/2000/svg" xmlns:xlink="http://www.w3.org/1999/xlink">
    <title>O_icon</title>
    <g id="_design" stroke="none" stroke-width="1" fill="none" fill-rule="evenodd" opacity="0.03">
        <path d="M976.903768,462 C976.903768,475.17284 977.160009,488.071565 976.836226,500.955642 C976.458828,515.999854 976.048007,531.071268 974.823202,546.06247 C970.692012,596.632056 958.858271,645.474652 938.77886,691.993204 C882.23384,822.989233 788.212175,915.764079 655.133941,967.820021 C612.351434,984.555652 567.755046,993.727675 521.876061,996.839886 C429.519962,1003.10546 342.684186,983.933489 260.964876,940.735 C260.132093,940.294185 259.372422,939.714569 258,938.823871 C267.681455,918.81212 277.298154,898.934287 286.705265,879.488899 C436.382069,953.296837 583.296623,951.744219 722.005893,857.561136 C860.04253,763.834213 917.132061,627.125722 911.583189,462 L976.903768,462 Z M887.096329,0.0451333937 C922.068651,0.0618618169 957.040973,0.376216768 992.013294,0.569290652 C993.723582,0.579048899 995.432475,0.737968918 998,0.871796304 L998,52.4727085 L997.999985,52.9081346 L997.999985,52.9081346 L997.999045,54.162496 C997.976593,66.8624416 997.426524,67.1223277 983.949836,67.1332978 L983.071947,67.1337773 L983.071947,67.1337773 C851.646215,67.1930238 720.220483,67.2515733 588.79475,67.31779 C555.938666,67.3345184 523.082582,67.2954854 490.226497,67.4286158 C392.311809,67.8238248 304.630251,98.153153 228.297138,159.29554 C145.081719,225.951336 93.6565938,312.380825 72.7488106,416.834493 C66.8241831,446.430558 64.588672,476.4295 65.2464214,506.627789 C65.3845279,512.953921 65.2666491,519.286326 65.2666491,526 L0.514250603,526 C0.422877139,523.930555 0.256870386,521.884111 0.254777864,519.837667 C0.250282817,515.674458 0.216165235,511.509976 0.174278434,507.34513 L0.108352985,501.097703 C-0.0242250808,488.602758 -0.12838618,476.10864 0.385909249,463.639924 C1.62886737,433.502275 6.81692713,403.852539 14.3123413,374.66632 C37.4451729,284.590732 81.5206632,206.234798 147.742012,140.835725 C215.767115,73.6550743 296.715635,29.8977015 390.47597,10.112159 C423.087229,3.23050397 456.057704,0.0611647992 489.336478,0.0458304114 C621.92356,-0.0148101225 754.509945,-0.0155071401 887.096329,0.0451333937 Z" id="O_icon" fill="#000000"></path>
    </g>
</svg>