<?xml version="1.0" encoding="UTF-8"?>
<svg width="1344px" height="252px" viewBox="0 0 1344 252" version="1.1" xmlns="http://www.w3.org/2000/svg" xmlns:xlink="http://www.w3.org/1999/xlink">
    <title>logo_kivnon</title>
    <g id="_design" stroke="none" stroke-width="1" fill="none" fill-rule="evenodd" opacity="0.03">
        <path d="M1344,107 L1344,252 L1282.97564,252 L1282.97564,123.050353 L1192.82766,123.050353 L1192.82766,214.683927 L1133,214.683927 L1133,121.521 L1087.55949,121.521706 C1086.03539,149.437956 1074.18658,175.588295 1054.12708,195.343019 L1053.5167,195.939685 C1032.87165,215.970419 1006.01946,227 977.911463,227 C960.829551,227 944.439841,223.119862 929.203804,215.463312 L929.203804,215.463312 L926,213.849789 L932.494607,200.50365 L935.698411,202.117172 C948.888099,208.747983 963.08394,212.109489 977.881203,212.113331 C1030.39787,212.059547 1073.12157,168.617365 1073.12157,115.275067 L1073.12157,115.275067 L1073.18965,107 L1344,107 Z M977.232335,5 L1092,5.05341246 L1092,19.6579059 L1091.23784,19.6579059 L977.232335,19.7761763 C925.02247,19.7761763 882.186037,62.5328529 881.749975,115.079271 L881.749975,115.079271 L881.749975,122 L821.939,121.999 L821.939319,123.050353 L822,252 L761.004217,252 L761.004,121.999 L671.002,121.998 L671.002916,214.683927 L611.285227,214.683927 L611.339,121.998 L529.702,121.997 L490.222838,215.966835 L423.765765,215.966835 L384.264,121.995 L302.627,121.995 L302.627526,214.683927 L242.128569,214.683927 L242.128,121.994 L129.812,121.993 L205.234521,209.991487 L205.234521,214.683927 L132.481794,214.683927 L60.5558457,126.652514 L60.5558457,214.683927 L0,214.683927 L1.085,121.992 L1,121.99237 L1,107.601526 L867.378896,107.605341 C870.309989,68.2136499 894.039333,33.1521831 929.432381,15.9838915 C944.406363,8.69690547 960.487563,5 977.232335,5 L977.232335,5 Z M467.171643,123.050353 L446.824546,123.050353 L456.999991,150.607845 L467.171643,123.050353 Z M667.936991,31.8852188 C686.483725,7.6668899 710.099722,-0.405886401 735.400404,0.0155684602 C780.472352,0.0155684602 819.174447,20.6745195 822,95 L822,95 L760.529955,95 C757.997224,68.8276531 744.280171,55.2568066 718.116232,55.2568066 C693.98304,54.8928228 676.676051,72.8199801 672.127785,95 L672.127785,95 L611,95 L611,5.11517228 L665.818777,5.11517228 Z M579,5 L540.887258,95 L476,95 L480.593181,81.9987212 L510.585971,5 L579,5 Z M402.416587,5 L432.407158,81.9987212 L437,95 L372.113732,95 L334,5 L402.416587,5 Z M302,5 L302,95 L242,95 L242,5 L302,5 Z M1189.93144,31.8852188 C1208.49025,7.6668899 1232.1109,-0.405886401 1257.40489,0.0155684602 C1302.47846,0.0155684602 1341.17815,20.6745195 1344,95 L1344,95 L1282.54295,95 C1279.99872,68.8276531 1266.27737,55.2568066 1240.12009,55.2568066 C1215.98603,54.8928228 1198.67462,72.8199801 1194.12999,95 L1194.12999,95 L1133,95 L1133,5.11517228 L1187.82836,5.11517228 Z M60.726731,5 L60.726731,92.1769375 L122.30534,5.32263571 L194,5.32263571 L194,9.15201434 L128.22285,95 L0,95 L0,5 L60.726731,5 Z" id="logo_kivnon" fill="#2C2C2C"></path>
    </g>
</svg>