<svg id="Capa_1" data-name="Capa 1" xmlns="http://www.w3.org/2000/svg" viewBox="0 0 288.98 185.19">
  <title>ondas</title>
  <path d="M217.51,25.91C203.9,40.94,185.15,50.78,163.1,54c-20.8,3.07-42.12-.27-60.1-9.75A82.83,82.83,0,0,1,78.35,24.72" fill="none" stroke="#efefef" stroke-linecap="round" stroke-miterlimit="10" stroke-width="22"/>
  <path d="M245.91,70.66c-19.16,19.91-45.57,33-76.62,37.25C140,112,110,107.54,84.66,95A115.48,115.48,0,0,1,50,69.08" fill="none" stroke="#efefef" stroke-linecap="round" stroke-miterlimit="10" stroke-width="22"/>
  <path d="M269.56,113.46c-23.78,25.44-56.56,42.11-95.12,47.61-36.36,5.18-73.61-.47-105-16.51A143.93,143.93,0,0,1,26.3,111.44" fill="none" stroke="#efefef" stroke-linecap="round" stroke-miterlimit="10" stroke-width="22"/>
</svg>
